<svg id="Camada_1" data-name="Camada 1" xmlns="http://www.w3.org/2000/svg" viewBox="0 0 1821.42 437.96"><defs><style>.cls-1{fill:#b1d566;}.cls-2{fill:#c5e08d;}.cls-3{fill:#d4e8ab;}.cls-4{fill:#fff;}</style></defs><path class="cls-1" d="M1798.85,293.74h-91.94a2.93,2.93,0,0,0-2.6,4L1783,513.25a3.14,3.14,0,0,1,0,2.16l-78.61,210a2.94,2.94,0,0,0,2.6,4h91.9a2.78,2.78,0,0,0,2.59-1.86l80.94-214.89a3.14,3.14,0,0,0,0-2.18L1801.44,295.6A2.78,2.78,0,0,0,1798.85,293.74Z" transform="translate(-61.16 -292.04)"/><path class="cls-2" d="M1663.1,292h-91.94a2.94,2.94,0,0,0-2.6,4l78.66,215.5a3.12,3.12,0,0,1,0,2.15l-78.61,210a2.94,2.94,0,0,0,2.6,4h91.9a2.82,2.82,0,0,0,2.6-1.86L1746.63,511a3.06,3.06,0,0,0,0-2.19L1665.7,293.91A2.82,2.82,0,0,0,1663.1,292Z" transform="translate(-61.16 -292.04)"/><path class="cls-3" d="M1524,292h-91.94a2.94,2.94,0,0,0-2.6,4l78.66,215.5a3.12,3.12,0,0,1,0,2.15l-78.61,210a2.94,2.94,0,0,0,2.6,4H1524a2.82,2.82,0,0,0,2.6-1.86L1607.56,511a3.06,3.06,0,0,0,0-2.19l-80.93-214.88A2.82,2.82,0,0,0,1524,292Z" transform="translate(-61.16 -292.04)"/><path class="cls-4" d="M61.16,300.32H417.24v88.52h-129V722.06h-99.1V388.84H61.16Z" transform="translate(-61.16 -292.04)"/><path class="cls-4" d="M564.78,729.41q-84.81,0-134.93-50.29T379.74,542.66V300.32h99.1V542.66q0,47.94,22.54,73.67t63.4,25.73q41.72,0,64.81-25.73t23.09-73.67V300.32h98V542.66q0,86.18-50,136.46T564.78,729.41Z" transform="translate(-61.16 -292.04)"/><path class="cls-4" d="M889.8,730q-100.21,0-168-37.35l7.84-87.94q31.07,17.07,77.12,27.5t83,10.44A225.1,225.1,0,0,0,918.92,641a100.59,100.59,0,0,0,23.37-5.88q11.06-4.26,16.8-12.79t5.74-20.88a53.64,53.64,0,0,0-2-15.15,25.42,25.42,0,0,0-7.42-11.62,79.34,79.34,0,0,0-10.78-8.38Q939.35,563,928,559.57t-19.87-5.44q-8.55-2.05-25.34-5.59-40-7.06-67.46-16.32t-48.15-23.53q-20.72-14.26-30.51-35.15t-9.8-49.7q0-31.47,13.86-56.76a114.82,114.82,0,0,1,37.79-41.17q23.93-15.89,54.59-24.27a246.75,246.75,0,0,1,65.36-8.38q81.18,0,146.13,31.17l-12,87.94Q959.51,380,898.48,380a194.12,194.12,0,0,0-27,1.62,75.73,75.73,0,0,0-20.72,5.88,30.46,30.46,0,0,0-14.13,12.35q-4.77,8.1-4.76,19.85,0,19.13,15.67,28.09T908,465.6a534,534,0,0,1,56.69,13.24,237.67,237.67,0,0,1,44.65,18.23q20.14,10.89,33,25A100.3,100.3,0,0,1,1062.25,555q7,18.82,7,42.35,0,32.35-14.13,57.94a116.5,116.5,0,0,1-38.92,41.76q-24.77,16.19-57,24.56T889.8,730Z" transform="translate(-61.16 -292.04)"/><path class="cls-4" d="M1189.07,730q-100.21,0-168-37.35l7.83-87.94q31.08,17.07,77.13,27.5t83,10.44a224.83,224.83,0,0,0,29.11-1.62,100.8,100.8,0,0,0,23.38-5.88q11.06-4.26,16.79-12.79t5.74-20.88a53.28,53.28,0,0,0-2-15.15,25.33,25.33,0,0,0-7.42-11.62,79.29,79.29,0,0,0-10.77-8.38q-5.32-3.37-16.66-6.76t-19.88-5.44q-8.54-2.05-25.33-5.59-40-7.06-67.46-16.32t-48.15-23.53q-20.73-14.26-30.52-35.15t-9.79-49.7q0-31.47,13.85-56.76a115,115,0,0,1,37.79-41.17q23.94-15.89,54.59-24.27a246.82,246.82,0,0,1,65.37-8.38q81.18,0,146.12,31.17l-12,87.94Q1258.78,380,1197.75,380a194.17,194.17,0,0,0-27,1.62,75.66,75.66,0,0,0-20.71,5.88,30.44,30.44,0,0,0-14.14,12.35q-4.77,8.1-4.76,19.85,0,19.13,15.68,28.09t60.46,17.79A533.44,533.44,0,0,1,1264,478.84a237.67,237.67,0,0,1,44.65,18.23q20.16,10.89,33,25A100.27,100.27,0,0,1,1361.51,555q7,18.82,7,42.35,0,32.35-14.14,57.94a116.38,116.38,0,0,1-38.91,41.76q-24.78,16.19-57,24.56T1189.07,730Z" transform="translate(-61.16 -292.04)"/><polyline class="cls-4" points="983.45 32.39 1015.96 50.59 1002.93 81.01 985.54 89.7 959.94 84.97"/><polygon class="cls-4" points="660.68 400.61 633.52 385.23 659.59 333.08 681.32 341.77 707.4 385.23 660.68 400.61"/></svg>